<?xml version="1.0" encoding="UTF-8"?>
<svg version="1.1" xmlns="http://www.w3.org/2000/svg" width="250" height="250">
<path d="M0 0 C1.00869141 0.01788574 2.01738281 0.03577148 3.05664062 0.05419922 C15.17359509 0.30435334 27.02610699 0.71397923 38.91015625 3.1953125 C41.8890078 3.81697315 44.8495488 4.25614099 47.87109375 4.6171875 C56.7379322 5.71064332 63.22917437 6.89943549 70.57421875 12.37109375 C73.18037485 14.12112128 75.3406677 14.82057688 78.375 15.5625 C82.16947892 16.58200229 84.76899292 17.70548666 87.171875 21.0390625 C88.90395893 25.14050651 88.91387797 29.5999471 89 34 C90.01578125 34.14695313 91.0315625 34.29390625 92.078125 34.4453125 C103.62591839 36.26598033 116.31759753 39.43619284 124 49 C128.1957339 56.09460459 131.10362747 62.29873331 131.16113281 70.56860352 C131.17074036 71.68819962 131.1803479 72.80779572 131.19024658 73.96131897 C131.1966214 75.77677467 131.1966214 75.77677467 131.203125 77.62890625 C131.20882507 78.88775131 131.21452515 80.14659637 131.22039795 81.44358826 C131.22985306 84.11762086 131.23674523 86.79154122 131.24023438 89.46557617 C131.24457893 92.17014356 131.25831116 94.87438469 131.28125 97.57885742 C131.68060073 148.36191876 131.68060073 148.36191876 118 166 C115.0625 168.375 115.0625 168.375 112 170 C110.9275 170.61875 109.855 171.2375 108.75 171.875 C108.16476563 172.20113281 107.57953125 172.52726563 106.9765625 172.86328125 C105.51505024 173.70379522 104.07519699 174.58222648 102.6484375 175.48046875 C94.23198336 180.7570383 86.88857874 183.21519216 77 184 C77.33 184.99 77.66 185.98 78 187 C78.08239169 188.84610532 78.10743359 190.69505164 78.09765625 192.54296875 C78.09443359 193.61611328 78.09121094 194.68925781 78.08789062 195.79492188 C78.07951172 196.91447266 78.07113281 198.03402344 78.0625 199.1875 C78.05798828 200.31865234 78.05347656 201.44980469 78.04882812 202.61523438 C78.03703498 205.41020927 78.0205765 208.2050782 78 211 C68.57381198 215.2539236 59.20766652 219.23985657 49.1875 221.875 C48.47360107 222.06537842 47.75970215 222.25575684 47.02416992 222.4519043 C34.90304269 225.47161099 22.77133715 226.38048337 10.3125 226.3125 C9.26493027 226.30976578 9.26493027 226.30976578 8.19619751 226.30697632 C-3.10127795 226.25752278 -13.96677064 225.53452714 -25 223 C-25.78084961 222.82839355 -26.56169922 222.65678711 -27.36621094 222.47998047 C-38.86441849 219.90358995 -49.38069551 216.08261884 -60 211 C-60.08813808 206.87513789 -60.14077078 202.75052261 -60.1875 198.625 C-60.22520508 196.89056641 -60.22520508 196.89056641 -60.26367188 195.12109375 C-60.31830464 188.67442793 -59.79484939 183.32127768 -57.72705078 177.21655273 C-55.00592708 168.92068903 -55.80264982 159.6913635 -55.8125 151.0625 C-55.81240936 149.84383743 -55.81240936 149.84383743 -55.81231689 148.60055542 C-55.83189978 129.41319572 -56.31765956 110.23164754 -56.81188583 91.05179977 C-56.87485743 88.56812307 -56.93471483 86.08438829 -56.99380493 83.60061646 C-57.08898533 79.63000876 -57.19376563 75.65976033 -57.30569267 71.68959045 C-57.34614534 70.21068465 -57.38372819 68.73169708 -57.41819954 67.25263977 C-57.66390343 54.56846419 -57.66390343 54.56846419 -61.08984375 42.43359375 C-63.23481438 36.69832895 -62.82133845 29.9858151 -62 24 C-60.48038279 21.66935113 -59.17922422 20.6634541 -56.828125 19.21484375 C-54.73397804 17.82322045 -54.18540967 16.7125127 -53.0625 14.5 C-49.42216247 9.02135248 -41.94880752 7.61337994 -35.984375 5.66113281 C-33.25035407 4.750241 -30.56683331 3.71542536 -27.875 2.6875 C-18.81270486 -0.74343283 -9.52802724 -0.17562398 0 0 Z M83 65 C81.68 67.97 80.36 70.94 79 74 C77.68 74 76.36 74 75 74 C74.23510409 78.82557659 73.83159931 83.521333 73.70288086 88.40405273 C73.68322769 89.107332 73.66357452 89.81061127 73.64332581 90.53520203 C73.58001049 92.83458091 73.52238066 95.13406365 73.46484375 97.43359375 C73.42178504 99.03785638 73.37836834 100.64210945 73.33460999 102.24635315 C73.22090826 106.44985242 73.11204353 110.65346331 73.00421143 114.8571167 C72.89311836 119.15417199 72.77741556 123.45110294 72.66210938 127.74804688 C72.43691371 136.16525017 72.21683175 144.58257711 72 153 C73.73197496 152.55398567 75.46208521 152.10072725 77.19140625 151.64453125 C78.15506104 151.39292236 79.11871582 151.14131348 80.11157227 150.88208008 C87.46151034 148.63752541 92.141451 145.75446624 96 139 C102.50867386 120.00573281 107.32168389 88.97056984 99.8125 70 C96.87382462 66.75732372 94.02582208 65.15226767 89.609375 64.8203125 C87.40544686 64.81338191 85.20166576 64.89992428 83 65 Z " fill="#CF872A" transform="translate(104,10)"/>
<path d="M0 0 C1.00869141 0.01788574 2.01738281 0.03577148 3.05664062 0.05419922 C15.17359509 0.30435334 27.02610699 0.71397923 38.91015625 3.1953125 C41.8890078 3.81697315 44.8495488 4.25614099 47.87109375 4.6171875 C56.7379322 5.71064332 63.22917437 6.89943549 70.57421875 12.37109375 C73.18037485 14.12112128 75.3406677 14.82057688 78.375 15.5625 C82.15348651 16.58371257 84.82625339 17.67766659 87.18310547 21.03271484 C90.46566619 28.93793728 89.11070329 39.5524278 88.8125 47.9375 C88.79380859 49.03384766 88.77511719 50.13019531 88.75585938 51.25976562 C88.55074979 57.16476268 88.39669995 60.69236764 84 65 C83.03269757 66.7436899 82.11287578 68.51484212 81.25 70.3125 C80.82203125 71.19550781 80.3940625 72.07851562 79.953125 72.98828125 C79.63859375 73.65214844 79.3240625 74.31601563 79 75 C77.68 74.67 76.36 74.34 75 74 C75 76.31 75 78.62 75 81 C74.67 81 74.34 81 74 81 C74.04125 79.845 74.0825 78.69 74.125 77.5 C73.47118503 72.03527789 69.8495745 69.71286607 65.73828125 66.46875 C62.55049515 64.75889612 60.56040849 64.88446418 57 65 C56.88724731 66.24088379 56.88724731 66.24088379 56.7722168 67.50683594 C56.48615519 70.58670102 56.18850968 73.66516644 55.88305664 76.74316406 C55.68980323 78.7263639 55.509859 80.71084599 55.33007812 82.6953125 C55.14155273 84.57089844 55.14155273 84.57089844 54.94921875 86.484375 C54.78425903 88.21252441 54.78425903 88.21252441 54.6159668 89.97558594 C53.97650984 93.11533732 53.12574241 94.64983164 51 97 C49.02 96.505 49.02 96.505 47 96 C47.16371094 95.06027344 47.32742187 94.12054688 47.49609375 93.15234375 C48.19019649 88.2936246 48.10834309 83.46065789 48.0625 78.5625 C48.05798828 77.64017578 48.05347656 76.71785156 48.04882812 75.76757812 C48.03713938 73.51164952 48.02075455 71.25586033 48 69 C47.38125 68.855625 46.7625 68.71125 46.125 68.5625 C44 68 44 68 42 67 C38.05351933 66.74262083 35.37767101 66.87331825 32 69 C30.62624631 70.15645826 30.62624631 70.15645826 30.75 73.3125 C30 77 30 77 27.4375 79.4375 C26.633125 79.953125 25.82875 80.46875 25 81 C24.94392578 79.75283203 24.94392578 79.75283203 24.88671875 78.48046875 C24.82097656 77.39378906 24.75523437 76.30710937 24.6875 75.1875 C24.62949219 74.10855469 24.57148438 73.02960938 24.51171875 71.91796875 C23.95315129 68.73285505 23.41243297 67.99922027 21 66 C20.505 65.0925 20.01 64.185 19.5 63.25 C16.91746591 59.23820087 12.98341258 57.35284591 8.97265625 54.9453125 C4.1888983 51.81481124 0.12129414 47.94249613 -4 44 C-2.60379265 47.22618785 -1.88700827 48.08135405 1.125 50.25 C4 53 4 53 4.390625 55.09765625 C4.375 57.3125 4.375 57.3125 4 61 C0.39589047 61.82666631 -2.92198007 62.12201844 -6.61645508 62.11352539 C-7.71721878 62.11344986 -8.81798248 62.11337433 -9.95210266 62.11329651 C-11.71797981 62.10555458 -11.71797981 62.10555458 -13.51953125 62.09765625 C-14.73323898 62.0962413 -15.94694672 62.09482635 -17.19743347 62.09336853 C-21.06914752 62.08777665 -24.94080347 62.07522558 -28.8125 62.0625 C-31.43945229 62.05748395 -34.06640549 62.05292123 -36.69335938 62.04882812 C-43.12892603 62.03780987 -49.56445886 62.02107976 -56 62 C-56 63.98 -56 65.96 -56 68 C-56.33 68 -56.66 68 -57 68 C-57.04487549 67.40050537 -57.08975098 66.80101074 -57.13598633 66.18334961 C-57.34897455 63.43360008 -57.58059076 60.68571584 -57.8125 57.9375 C-57.88275391 56.99455078 -57.95300781 56.05160156 -58.02539062 55.08007812 C-58.51842779 49.42001143 -59.6911591 45.23337272 -62 40 C-63.01542244 34.46709763 -63.75356623 26.67210093 -60.60546875 21.875 C-58.8125 20.4375 -58.8125 20.4375 -56.828125 19.21484375 C-54.73397804 17.82322045 -54.18540967 16.7125127 -53.0625 14.5 C-49.42216247 9.02135248 -41.94880752 7.61337994 -35.984375 5.66113281 C-33.25035407 4.750241 -30.56683331 3.71542536 -27.875 2.6875 C-18.81270486 -0.74343283 -9.52802724 -0.17562398 0 0 Z " fill="#ECE5E0" transform="translate(104,10)"/>
<path d="M0 0 C0.928125 0.825 1.85625 1.65 2.8125 2.5 C9.45431181 8.19683858 16.66285392 13.24077011 24 18 C23.67 18.66 23.34 19.32 23 20 C19.04 20 15.08 20 11 20 C11.05329468 22.85700562 11.05329468 22.85700562 11.10766602 25.77172852 C11.27065226 34.70180425 11.42100996 43.6320582 11.5625 52.5625 C11.57523327 53.36555195 11.58796654 54.1686039 11.60108566 54.99599075 C12.03449008 82.69089354 11.90300534 110.31246707 11 138 C17.27 138 23.54 138 30 138 C30 138.33 30 138.66 30 139 C10.53 139.66 -8.94 140.32 -29 141 C-29 101.07 -29 61.14 -29 20 C-16.13 19.67 -3.26 19.34 10 19 C10 16.36 10 13.72 10 11 C9.40703125 10.7421875 8.8140625 10.484375 8.203125 10.21875 C5.82339035 8.90230105 4.49021208 7.57419218 2.75 5.5 C2.22921875 4.8915625 1.7084375 4.283125 1.171875 3.65625 C0 2 0 2 0 0 Z " fill="#EBC177" transform="translate(98,52)"/>
<path d="M0 0 C6.77400106 2.71684535 13.7487948 6.40436379 17.05897522 13.1618042 C20.24045858 21.09656492 20.56839742 28.28298767 20.49609375 36.765625 C20.49624928 38.17128575 20.49774723 39.57694692 20.50050354 40.98260498 C20.50187893 43.91421718 20.48948244 46.84533509 20.46655273 49.77685547 C20.43827613 53.48919897 20.44088812 57.2007167 20.45364285 60.91312027 C20.46068378 63.81326033 20.45271469 66.71321794 20.44038582 69.61333466 C20.4338216 71.63302066 20.43796315 73.65273271 20.44248962 75.67242432 C20.29473347 90.40486868 18.8177474 107.12591017 8 118 C7.484375 118.55945313 6.96875 119.11890625 6.4375 119.6953125 C5 121 5 121 3 121 C2.505 122.485 2.505 122.485 2 124 C-2.34285714 128 -2.34285714 128 -6 128 C-6.33 128.99 -6.66 129.98 -7 131 C-12.66847078 135.63655465 -20.56498994 139.69703219 -28 139 C-29 132.375 -29 132.375 -29 129 C-29.33 128.67 -29.66 128.34 -30 128 C-30.50198074 124.9245737 -30.53041682 122.07221624 -30 119 C-26.72484947 115.12153227 -23.64602023 113.79388412 -18.9375 112.0625 C-13.95748805 110.18282632 -11.80223967 108.55363947 -9 104 C-7.05701554 98.17104663 -6.34463312 92.12205501 -5.46484375 86.05078125 C-5.1871174 84.22805619 -4.87215787 82.40952428 -4.48200989 80.60751343 C-4.01670131 78.09034856 -3.85434329 75.78501228 -3.82299805 73.22900391 C-3.81016281 72.31100006 -3.79732758 71.39299622 -3.78410339 70.44717407 C-3.77671646 69.46687225 -3.76932953 68.48657043 -3.76171875 67.4765625 C-3.753647 66.45702484 -3.74557526 65.43748718 -3.73725891 64.38705444 C-3.72345352 62.23363936 -3.71271558 60.08020272 -3.70483398 57.92675781 C-3.69329645 55.72910127 -3.67281689 53.53147312 -3.64331055 51.33398438 C-3.60060297 48.15215078 -3.58446208 44.97114725 -3.57421875 41.7890625 C-3.55671066 40.81280914 -3.53920258 39.83655579 -3.52116394 38.83071899 C-3.54058338 32.69531229 -4.3028126 28.96808259 -8 24 C-9.051875 23.505 -10.10375 23.01 -11.1875 22.5 C-14 21 -14 21 -14.9375 18 C-15.0390625 16.171875 -15.0390625 16.171875 -15 14 C-14.98710937 13.07703125 -14.97421875 12.1540625 -14.9609375 11.203125 C-14.57812009 3.58707327 -14.57812009 3.58707327 -12.234375 1.20703125 C-8.19738622 -0.97378961 -4.45156782 -0.77094191 0 0 Z " fill="#CDCDCD" transform="translate(211,50)"/>
<path d="M0 0 C0.55945312 0.31453125 1.11890625 0.6290625 1.6953125 0.953125 C10.05922123 5.41746213 18.83682636 7.74306068 28 10 C28 10.66 28 11.32 28 12 C40.35473184 13.54269424 52.51097629 14.32162005 64.96166992 14.26074219 C67.56517724 14.24998894 70.16799718 14.26073875 72.77148438 14.2734375 C83.97355852 14.28133936 94.89789304 13.47859688 106 12 C106 11.34 106 10.68 106 10 C116 6.66666667 126 3.33333333 136 0 C136.33 7.59 136.66 15.18 137 23 C127.50024677 27.21417624 118.24579313 31.22982988 108.1875 33.875 C107.47360107 34.06537842 106.75970215 34.25575684 106.02416992 34.4519043 C93.90304269 37.47161099 81.77133715 38.38048337 69.3125 38.3125 C68.26493027 38.30976578 68.26493027 38.30976578 67.19619751 38.30697632 C55.89872205 38.25752278 45.03322936 37.53452714 34 35 C32.82872559 34.74259033 32.82872559 34.74259033 31.63378906 34.47998047 C20.13558151 31.90358995 9.61930449 28.08261884 -1 23 C-1.02894547 19.54168414 -1.04678 16.08339928 -1.0625 12.625 C-1.07087891 11.64015625 -1.07925781 10.6553125 -1.08789062 9.640625 C-1.09111328 8.69960937 -1.09433594 7.75859375 -1.09765625 6.7890625 C-1.10289307 5.91975098 -1.10812988 5.05043945 -1.11352539 4.15478516 C-1 2 -1 2 0 0 Z " fill="#837E7D" transform="translate(45,198)"/>
<path d="M0 0 C6.93 0 13.86 0 21 0 C21 39.93 21 79.86 21 121 C21.66 121.33 22.32 121.66 23 122 C14.29575193 123.01338439 5.74798978 123.08613697 -3 123 C-2.78633789 121.91452881 -2.57267578 120.82905762 -2.35253906 119.71069336 C-0.26124099 108.55153752 0.40535323 97.89421375 0.25 86.5625 C0.23796206 84.84701174 0.22691924 83.13151626 0.21679688 81.41601562 C0.10567589 66.4975096 -0.2364868 51.57935426 -0.64355469 36.66625977 C-0.85718462 28.81972138 -1.05293817 20.97462746 -1.09375 13.125 C-1.10083984 11.89007813 -1.10792969 10.65515625 -1.11523438 9.3828125 C-1 6 -1 6 0 0 Z " fill="#D7902E" transform="translate(48,72)"/>
<path d="M0 0 C12.45336498 -0.40830705 24.38948505 3.16204273 33.80859375 11.625 C39.97297151 18.26592567 43.09869328 26.58914467 43.16113281 35.56860352 C43.17074036 36.68819962 43.1803479 37.80779572 43.19024658 38.96131897 C43.19449646 40.17162277 43.19874634 41.38192657 43.203125 42.62890625 C43.20882507 43.88775131 43.21452515 45.14659637 43.22039795 46.44358826 C43.22985306 49.11762086 43.23674523 51.79154122 43.24023438 54.46557617 C43.24457893 57.17014356 43.25831116 59.87438469 43.28125 62.57885742 C43.68060073 113.36191876 43.68060073 113.36191876 30 131 C27.0625 133.375 27.0625 133.375 24 135 C22.9275 135.61875 21.855 136.2375 20.75 136.875 C20.16476563 137.20113281 19.57953125 137.52726563 18.9765625 137.86328125 C17.51505024 138.70379522 16.07519699 139.58222648 14.6484375 140.48046875 C7.16266935 145.17355869 -1.83050878 149.84698112 -11 149 C-13.94725451 146.73183639 -14.78964822 144.46726859 -15.31640625 140.79296875 C-16.03508951 133.18405235 -16.10036662 125.6390152 -16 118 C-15.443125 117.82984375 -14.88625 117.6596875 -14.3125 117.484375 C-2.7994973 113.84469709 -2.7994973 113.84469709 6 106 C9.06133434 98.28799748 10.84608347 90.19888063 12 82 C12.11214844 81.22269531 12.22429687 80.44539063 12.33984375 79.64453125 C13.87307321 66.43355409 15.84448552 47.41898952 10.75 34.9375 C6.81660984 30.58267518 1.5292846 30.56230013 -4 30 C-2.125 26.125 -2.125 26.125 -1 25 C-0.84213692 23.14825294 -0.74892644 21.2909089 -0.68359375 19.43359375 C-0.64169922 18.30888672 -0.59980469 17.18417969 -0.55664062 16.02539062 C-0.51732422 14.84138672 -0.47800781 13.65738281 -0.4375 12.4375 C-0.39431641 11.24962891 -0.35113281 10.06175781 -0.30664062 8.83789062 C-0.20016454 5.89205216 -0.09815159 2.9461257 0 0 Z M5 8 C4.25801356 11.27788581 4.25801356 11.27788581 4.1875 14.9375 C4.11917969 16.16339844 4.05085938 17.38929687 3.98046875 18.65234375 C3.95609225 22.44663464 3.95609225 22.44663464 5 26 C6.7073961 26.94855339 8.4220318 27.89561394 10.2109375 28.6796875 C12.9933448 30.73307978 13.72770666 32.7744645 15 36 C15.42186714 39.52011782 15.39694815 43.00901981 15.36328125 46.55078125 C15.36377975 47.56416061 15.36427826 48.57753998 15.36479187 49.62162781 C15.362457 51.76071131 15.35276319 53.89979785 15.33618164 56.03881836 C15.31265476 59.2911067 15.31561762 62.54257036 15.32226562 65.79492188 C15.31668583 67.88021317 15.30957406 69.96550103 15.30078125 72.05078125 C15.30214836 73.49497185 15.30214836 73.49497185 15.30354309 74.96833801 C15.24201828 80.91251839 14.45694124 86.2492367 13 92 C12.64802269 94.03853523 12.31204789 96.07997188 12 98.125 C10.00704904 110.08270578 10.00704904 110.08270578 6.80859375 112.99609375 C3.92419434 115.05408665 1.07886285 116.55692535 -2.125 118.0625 C-7.14364453 120.27607341 -7.14364453 120.27607341 -11 124 C-11.43585262 126.21122319 -11.43585262 126.21122319 -11.3125 128.5625 C-11.30863281 129.34753906 -11.30476562 130.13257813 -11.30078125 130.94140625 C-11.17703023 133.22126834 -11.17703023 133.22126834 -9 135 C-9.33 135.99 -9.66 136.98 -10 138 C-9.72428861 140.00875442 -9.39764263 142.01178687 -9 144 C-1.56665345 144.95914149 5.48907267 139.8682869 11.56640625 136.1484375 C12.03949219 135.76945313 12.51257813 135.39046875 13 135 C13 134.34 13 133.68 13 133 C13.556875 132.9175 14.11375 132.835 14.6875 132.75 C17.73677919 131.76104459 19.65189963 130.15242534 22 128 C22 127.34 22 126.68 22 126 C22.66 126 23.32 126 24 126 C25.70682481 124.35126195 25.70682481 124.35126195 27.4375 122.25 C28.03433594 121.55390625 28.63117188 120.8578125 29.24609375 120.140625 C29.82488281 119.43421875 30.40367187 118.7278125 31 118 C31.52464844 117.40316406 32.04929688 116.80632812 32.58984375 116.19140625 C34.50430168 113.21630681 35.28393206 110.08205019 36.125 106.6875 C36.45757812 105.41261719 36.79015625 104.13773437 37.1328125 102.82421875 C38.45133014 97.00967475 39.12338849 91.3881633 39.19287109 85.42895508 C39.20893402 84.16686722 39.22499695 82.90477936 39.24154663 81.60444641 C39.25303802 80.24281502 39.26364589 78.88117593 39.2734375 77.51953125 C39.28142302 76.47595239 39.28142302 76.47595239 39.28956985 75.41129112 C39.31618306 71.7275745 39.33559394 68.04389035 39.35009766 64.36010742 C39.36341168 61.3370115 39.39123321 58.31459459 39.43212891 55.29174805 C39.48185845 51.61366422 39.50626623 47.9361932 39.51332474 44.2577877 C39.51996918 42.86930305 39.53500966 41.48082838 39.55921555 40.09253883 C39.71939755 30.34910525 38.89729901 20.71884655 32.28988647 13.00300598 C30.61846493 11.4352465 28.93840083 10.21957719 27 9 C26.071875 8.38511719 26.071875 8.38511719 25.125 7.7578125 C19.07978816 4.22331364 10.2518949 2.29192715 5 8 Z " fill="#969696" transform="translate(192,45)"/>
<path d="M0 0 C0.125 5.75 0.125 5.75 -1 8 C-9.51528913 11.74248472 -18.85891694 13.53298234 -28 15 C-29.0219043 15.17063965 -30.04380859 15.3412793 -31.09667969 15.51708984 C-41.95463553 17.16451401 -52.66089345 17.39565531 -63.625 17.375 C-64.56288361 17.37545319 -65.50076721 17.37590637 -66.46707153 17.37637329 C-87.13830181 17.34717013 -106.96067141 15.31737971 -127 10 C-127 9.34 -127 8.68 -127 8 C-129.97 7.505 -129.97 7.505 -133 7 C-132.67 5.35 -132.34 3.7 -132 2 C-128.3967829 0.79892763 -127.86634458 1.26767946 -124.53515625 2.80078125 C-118.92457765 5.16779182 -113.43135672 6.24611893 -107.4375 7.1875 C-106.46103516 7.35185547 -105.48457031 7.51621094 -104.47851562 7.68554688 C-95.56657038 9.15795522 -86.82201362 10.1547496 -77.78515625 10.203125 C-76.93054306 10.20882507 -76.07592987 10.21452515 -75.19541931 10.22039795 C-73.3945334 10.22978402 -71.59363081 10.23635625 -69.79272461 10.24023438 C-67.1004251 10.24986435 -64.40891555 10.280918 -61.71679688 10.3125 C-46.89287058 10.40240951 -33.02942336 8.51201289 -18.6875 4.6875 C-15.20540196 3.79673073 -11.69552168 3.14671629 -8.15625 2.52734375 C-5.23584484 1.81311423 -3.0076431 0 0 0 Z " fill="#BFBCB9" transform="translate(179,202)"/>
<path d="M0 0 C2.64 0 5.28 0 8 0 C9.86199462 14.9790817 10.22160679 29.86248231 10.25 44.9375 C10.25749268 46.31659042 10.25749268 46.31659042 10.26513672 47.72354126 C10.43884945 86.75114663 10.43884945 86.75114663 2 97 C1.14636595 90.88940291 0.72748041 84.85123469 0.5 78.6875 C0.46011963 77.64859619 0.42023926 76.60969238 0.37915039 75.53930664 C-0.02605321 64.34131152 -0.29573158 53.13949454 -0.5625 41.9375 C-0.58473633 41.02092621 -0.60697266 40.10435242 -0.62988281 39.16000366 C-0.84684043 30.10900548 -1.0401632 21.05757589 -1.08984375 12.00390625 C-1.09749756 10.76584229 -1.10515137 9.52777832 -1.11303711 8.25219727 C-1.01273074 5.36627688 -0.67145714 2.80088814 0 0 Z " fill="#6C2B16" transform="translate(48,73)"/>
<path d="M0 0 C1.40221802 0.11746582 1.40221802 0.11746582 2.83276367 0.23730469 C7.16873518 0.6603263 10.91314779 1.16873272 14.875 3.125 C14.545 3.785 14.215 4.445 13.875 5.125 C11.56187878 5.72930292 9.22263596 6.23548541 6.875 6.6875 C2.54826394 7.18604207 2.54826394 7.18604207 -1.125 9.125 C-23.35349348 13.04430966 -48.48689964 11.99024447 -70.125 5.125 C-70.455 4.465 -70.785 3.805 -71.125 3.125 C-48.27479206 -2.79912799 -23.35069725 -1.96693409 0 0 Z " fill="#D2D1CF" transform="translate(139.125,223.875)"/>
<path d="M0 0 C3.44508199 1.17183081 6.10069232 2.82551924 9 5 C9.62390625 5.41121094 10.2478125 5.82242188 10.890625 6.24609375 C17.38341953 11.00277148 21.4278243 19.18887597 23 27 C23.10042906 28.85426041 23.14822045 30.71167031 23.16113281 32.56860352 C23.17074036 33.68819962 23.1803479 34.80779572 23.19024658 35.96131897 C23.19449646 37.17162277 23.19874634 38.38192657 23.203125 39.62890625 C23.20882507 40.88775131 23.21452515 42.14659637 23.22039795 43.44358826 C23.22985306 46.11762086 23.23674523 48.79154122 23.24023438 51.46557617 C23.24457893 54.17014356 23.25831116 56.87438469 23.28125 59.57885742 C23.68191254 110.52873423 23.68191254 110.52873423 10 128 C8.04524596 129.71040978 6.31691418 130.78637829 4 132 C3.34 131.67 2.68 131.34 2 131 C4.64 128.36 7.28 125.72 10 123 C6.43320663 123.89169834 5.04396879 124.4670234 2.25 126.5625 C1.63640625 127.01753906 1.0228125 127.47257812 0.390625 127.94140625 C-0.06828125 128.29074219 -0.5271875 128.64007813 -1 129 C-1.66 128.67 -2.32 128.34 -3 128 C-1.37660195 126.29115995 0.29319053 124.62553283 2 123 C2.66 123 3.32 123 4 123 C4.495 121.515 4.495 121.515 5 120 C6.64488294 118.31183067 8.31337542 116.64646685 10 115 C13.03531199 111.62398972 14.05528673 108.00486274 15.125 103.6875 C15.45757812 102.41261719 15.79015625 101.13773437 16.1328125 99.82421875 C17.45133014 94.00967475 18.12338849 88.3881633 18.19287109 82.42895508 C18.20893402 81.16686722 18.22499695 79.90477936 18.24154663 78.60444641 C18.25303802 77.24281502 18.26364589 75.88117593 18.2734375 74.51953125 C18.28142302 73.47595239 18.28142302 73.47595239 18.28956985 72.41129112 C18.31618306 68.7275745 18.33559394 65.04389035 18.35009766 61.36010742 C18.36341168 58.3370115 18.39123321 55.31459459 18.43212891 52.29174805 C18.48185845 48.61366422 18.50626623 44.9361932 18.51332474 41.2577877 C18.51996918 39.86930305 18.53500966 38.48082838 18.55921555 37.09253883 C18.71064921 27.88124258 17.80717646 20.03619579 13 12 C10.53084271 9.50499601 8.04617675 7.72596496 5 6 C4.05125 5.38125 3.1025 4.7625 2.125 4.125 C-2.21784129 2.56157713 -6.42751753 2.39400835 -11 3 C-14.13270409 4.59266174 -14.13270409 4.59266174 -14.43237305 6.87939453 C-14.45855713 7.62302246 -14.48474121 8.36665039 -14.51171875 9.1328125 C-14.56489258 10.34130859 -14.56489258 10.34130859 -14.61914062 11.57421875 C-14.64169922 12.41597656 -14.66425781 13.25773437 -14.6875 14.125 C-14.72166016 14.97449219 -14.75582031 15.82398438 -14.79101562 16.69921875 C-14.87359173 18.79901105 -14.93846978 20.89948564 -15 23 C-14.34 23.33 -13.68 23.66 -13 24 C-13.99 24 -14.98 24 -16 24 C-17.82915214 20.34169572 -17.22762535 16.02743635 -17.25 12 C-17.270625 11.071875 -17.29125 10.14375 -17.3125 9.1875 C-17.31765625 8.300625 -17.3228125 7.41375 -17.328125 6.5 C-17.3374707 5.6853125 -17.34681641 4.870625 -17.35644531 4.03125 C-17.18000488 3.02578125 -17.18000488 3.02578125 -17 2 C-11.87917 -1.41388667 -5.96781504 -0.63127378 0 0 Z " fill="#929292" transform="translate(212,48)"/>
<path d="M0 0 C0.495 1.98 0.495 1.98 1 4 C-7.32227242 10.03772705 -16.00263614 11.33377269 -26 13 C-26 17.62 -26 22.24 -26 27 C-32.93 27 -39.86 27 -47 27 C-47 28.98 -47 30.96 -47 33 C-47.33 33 -47.66 33 -48 33 C-48.05534912 32.37432129 -48.11069824 31.74864258 -48.16772461 31.10400391 C-48.42013899 28.27727803 -48.67874193 25.45115193 -48.9375 22.625 C-49.02451172 21.64015625 -49.11152344 20.6553125 -49.20117188 19.640625 C-49.28818359 18.69960938 -49.37519531 17.75859375 -49.46484375 16.7890625 C-49.543396 15.91975098 -49.62194824 15.05043945 -49.70288086 14.15478516 C-49.88877834 11.95507084 -49.88877834 11.95507084 -51 10 C-51.039992 8.00039988 -51.04346799 5.99952758 -51 4 C-49 7 -49 7 -48 10 C-43.06592572 12.46703714 -36.27884812 10.39576984 -31.2890625 8.8515625 C-29.35211279 8.18280668 -27.42306004 7.49480009 -25.49511719 6.80053711 C-20.98742189 5.21477371 -16.96018845 4.5655902 -12.22265625 4.3125 C-8.96232378 3.85410528 -6.42228333 2.46856889 -3.59375 0.83984375 C-2 0 -2 0 0 0 Z " fill="#C3BBB9" transform="translate(95,45)"/>
<path d="M0 0 C4.04318889 0.3816152 5.53740691 1.61727547 8.58203125 4.24609375 C9.44441406 4.97699219 10.30679688 5.70789063 11.1953125 6.4609375 C12.23833321 7.39003128 13.28183002 8.32089252 14.26953125 9.30859375 C14.3714926 11.97613356 14.40899889 14.61712172 14.40234375 17.28515625 C14.40370834 18.1106044 14.40507294 18.93605255 14.40647888 19.78651428 C14.40852035 22.50224703 14.40215493 25.21787195 14.39453125 27.93359375 C14.39331268 28.8538736 14.39209412 29.77415344 14.39083862 30.72232056 C14.37149576 43.1519333 14.22848927 55.57259323 13.83203125 67.99609375 C13.79287598 69.26340332 13.7537207 70.53071289 13.71337891 71.83642578 C13.52441902 77.09472337 13.21629124 82.12427657 12.26953125 87.30859375 C6.96935416 82.00841666 9.1056416 69.16909791 9.07030106 62.18118858 C9.05833695 60.02401021 9.03885074 57.86701681 9.0171814 55.70991516 C8.95609329 49.58491139 8.90138616 43.45994102 8.86816406 37.3347168 C8.84720363 33.56882319 8.81191532 29.8032929 8.76740646 26.03760719 C8.7532858 24.60995565 8.74453293 23.18224015 8.74135208 21.75452232 C8.73643477 19.76164333 8.71165163 17.76884347 8.68603516 15.77612305 C8.6779483 14.64490524 8.66986145 13.51368744 8.66152954 12.34819031 C8.21947969 8.92048859 7.3669869 7.03862967 5.26953125 4.30859375 C2.19391879 2.94878494 2.19391879 2.94878494 -0.73046875 2.30859375 C-0.70952148 3.14519531 -0.68857422 3.98179688 -0.66699219 4.84375 C-0.59834909 7.98221684 -0.54844312 11.12029791 -0.51074219 14.25927734 C-0.4810083 16.27207002 -0.43015146 18.28451509 -0.37890625 20.296875 C-0.30412329 27.73777948 -0.39180586 33.11917257 -4.73046875 39.30859375 C-6.87011719 40.5078125 -6.87011719 40.5078125 -8.73046875 41.30859375 C-9.39046875 40.64859375 -10.05046875 39.98859375 -10.73046875 39.30859375 C-10.46355623 35.43836215 -8.10901431 33.20744615 -5.73046875 30.30859375 C-4.67228467 27.13404151 -4.54393631 24.70006011 -4.44921875 21.36328125 C-4.41183594 20.20441406 -4.37445313 19.04554687 -4.3359375 17.8515625 C-4.26540054 15.39844394 -4.19508947 12.94531888 -4.125 10.4921875 C-4.08761719 9.33589844 -4.05023438 8.17960937 -4.01171875 6.98828125 C-3.9662793 5.39089111 -3.9662793 5.39089111 -3.91992188 3.76123047 C-3.65285568 0.30382452 -3.47515021 0.3927566 0 0 Z " fill="#91573D" transform="translate(163.73046875,73.69140625)"/>
<path d="M0 0 C0.66 0.33 1.32 0.66 2 1 C-1.89856904 5.99816544 -5.66046806 9.3946783 -11.046875 12.73828125 C-13.1219389 13.98176612 -13.1219389 13.98176612 -15 16 C-15.318384 18.1398632 -15.318384 18.1398632 -15.25 20.5 C-15.25515625 21.2940625 -15.2603125 22.088125 -15.265625 22.90625 C-15.18939909 25.21892751 -15.18939909 25.21892751 -13 27 C-13.33 27.99 -13.66 28.98 -14 30 C-14.03920815 31.99961564 -14.04443347 34.00049364 -14 36 C-2.8001164 32.99768014 -2.8001164 32.99768014 7 27 C7.33 26.34 7.66 25.68 8 25 C9.890625 24.0703125 9.890625 24.0703125 12.25 23.125 C15.28498494 21.85040252 17.22999351 20.81089422 19.8125 18.6875 C20.534375 18.130625 21.25625 17.57375 22 17 C24.13671875 17.39453125 24.13671875 17.39453125 26 18 C14.60048925 30.30904618 2.91766289 38.80720841 -14.0546875 41.1796875 C-16 41 -16 41 -17.6953125 39.6953125 C-23.25844091 32.46657678 -21.11192873 18.51902015 -21 10 C-20.443125 9.82984375 -19.88625 9.6596875 -19.3125 9.484375 C-12.36077204 7.27673166 -5.66416186 4.72013489 0 0 Z " fill="#7A736E" transform="translate(197,153)"/>
<path d="M0 0 C0.55945312 0.31453125 1.11890625 0.6290625 1.6953125 0.953125 C7.91751968 4.27430311 14.07932717 6.32887127 20.8984375 8.10546875 C23.49663311 8.8548224 25.65167405 9.68701973 28 11 C20.35383636 10.76030835 13.96457457 10.08592463 7.0234375 6.7421875 C4.8459657 5.70491361 4.8459657 5.70491361 2 7 C1.26676204 9.01508358 1.26676204 9.01508358 1 11 C3.97 11.495 3.97 11.495 7 12 C7 12.66 7 13.32 7 14 C9.64 14.66 12.28 15.32 15 16 C15 16.33 15 16.66 15 17 C13.35 17.33 11.7 17.66 10 18 C9.67 20.31 9.34 22.62 9 25 C4.9715651 25.18311068 2.51624755 24.94158017 -1 23 C-1.02894547 19.54168414 -1.04678 16.08339928 -1.0625 12.625 C-1.07087891 11.64015625 -1.07925781 10.6553125 -1.08789062 9.640625 C-1.09111328 8.69960937 -1.09433594 7.75859375 -1.09765625 6.7890625 C-1.10289307 5.91975098 -1.10812988 5.05043945 -1.11352539 4.15478516 C-1 2 -1 2 0 0 Z " fill="#594C45" transform="translate(45,198)"/>
<path d="M0 0 C2.50406003 3.80062866 2.25985265 7.61904703 2.1875 12 C2.18105469 12.83724609 2.17460937 13.67449219 2.16796875 14.53710938 C2.04688662 25.41179856 1.69458958 36.28643843 1.35620117 47.15625 C1.10134572 55.4406935 0.9274949 63.71025066 1 72 C-4.22479408 66.77520592 -2.16115635 54.12078084 -2.16796875 47.16796875 C-2.17129715 45.97319412 -2.17462555 44.77841949 -2.17805481 43.54743958 C-2.18308948 41.03887311 -2.18546421 38.53030003 -2.18530273 36.02172852 C-2.18750333 32.18169294 -2.20573425 28.34193853 -2.22460938 24.50195312 C-2.22754119 22.05729264 -2.2295274 19.61263081 -2.23046875 17.16796875 C-2.23765427 16.02208786 -2.24483978 14.87620697 -2.25224304 13.69560242 C-2.24916641 12.62711563 -2.24608978 11.55862885 -2.24291992 10.45776367 C-2.24434494 9.52195969 -2.24576996 8.5861557 -2.24723816 7.62199402 C-1.97792391 4.76588009 -1.1856189 2.59908105 0 0 Z " fill="#64210D" transform="translate(175,89)"/>
<path d="M0 0 C3.65345759 3.15525883 4.86072587 6.33685418 5.26069641 11.1131134 C5.2676075 12.86273628 5.2676075 12.86273628 5.2746582 14.64770508 C5.2823246 15.6197438 5.2823246 15.6197438 5.29014587 16.61141968 C5.30400589 18.7475519 5.30308553 20.88335945 5.30078125 23.01953125 C5.30467483 24.52105323 5.30901085 26.02257413 5.31376648 27.52409363 C5.32122446 30.67552244 5.32094392 33.82683929 5.31567383 36.97827148 C5.30992981 40.97086746 5.3266878 44.96299183 5.3500185 48.95551014 C5.36493875 52.06239907 5.36560225 55.16917982 5.36250877 58.27609825 C5.36301454 59.74495044 5.36810839 61.21380994 5.37832069 62.68262672 C5.46683349 77.21414037 3.98808582 90.96293871 -3 104 C-2.34 104.33 -1.68 104.66 -1 105 C-2.39909198 109.45165631 -4.47407079 111.96606091 -8 115 C-10.8125 116.3125 -10.8125 116.3125 -13 117 C-12.04270084 115.87411986 -11.08412105 114.7493285 -10.125 113.625 C-9.59132812 112.99851562 -9.05765625 112.37203125 -8.5078125 111.7265625 C-7.38567993 110.44163349 -6.20628025 109.20628025 -5 108 C-8.15330554 108.60694155 -10.18888867 109.6416665 -12.75 111.5625 C-13.36359375 112.01753906 -13.9771875 112.47257812 -14.609375 112.94140625 C-15.06828125 113.29074219 -15.5271875 113.64007813 -16 114 C-16.66 113.67 -17.32 113.34 -18 113 C-16.37660195 111.29115995 -14.70680947 109.62553283 -13 108 C-12.34 108 -11.68 108 -11 108 C-10.67 107.01 -10.34 106.02 -10 105 C-8.35511706 103.31183067 -6.68662458 101.64646685 -5 100 C-1.96468801 96.62398972 -0.94471327 93.00486274 0.125 88.6875 C0.45757812 87.41261719 0.79015625 86.13773437 1.1328125 84.82421875 C2.45655027 78.98665445 3.12439354 73.36480974 3.16113281 67.38134766 C3.17074036 66.10957672 3.1803479 64.83780579 3.19024658 63.52749634 C3.19509513 62.15635358 3.19937382 60.7852087 3.203125 59.4140625 C3.20595238 58.71459881 3.20877975 58.01513512 3.21169281 57.29447556 C3.22661942 53.59475078 3.23589079 49.89506437 3.24023438 46.1953125 C3.24571789 42.3971647 3.2697619 38.59937555 3.29820633 34.8013401 C3.31692864 31.85860192 3.32204332 28.91594866 3.32357025 25.97315598 C3.32657432 24.57386687 3.33452583 23.17457845 3.34775543 21.77534866 C3.41730936 13.8557341 3.04625093 7.35423286 0 0 Z " fill="#ADACAC" transform="translate(227,63)"/>
<path d="M0 0 C0.86074127 0.02009628 1.72148254 0.04019257 2.60830688 0.06089783 C3.53855682 0.08793289 4.46880676 0.11496796 5.42724609 0.14282227 C6.85464615 0.17823875 6.85464615 0.17823875 8.31088257 0.21437073 C11.35763139 0.29109484 14.40413161 0.37508154 17.45068359 0.45922852 C19.51317133 0.51244044 21.57567129 0.56518089 23.63818359 0.61743164 C28.70084176 0.74672184 33.76328865 0.88252686 38.82568359 1.02172852 C38.82568359 1.35172852 38.82568359 1.68172852 38.82568359 2.02172852 C41.13568359 2.35172852 43.44568359 2.68172852 45.82568359 3.02172852 C42.22492146 5.4222366 39.63727632 5.29523828 35.48193359 5.25219727 C34.75760132 5.25173904 34.03326904 5.25128082 33.2869873 5.25080872 C31.75039029 5.24778741 30.21379632 5.23990469 28.67724609 5.22753906 C26.36202722 5.20951151 24.0472147 5.20702803 21.73193359 5.20727539 C-1.32540397 5.15785082 -1.32540397 5.15785082 -6.17431641 1.02172852 C-3.841042 -0.14490869 -2.59195543 -0.06820935 0 0 Z " fill="#D58D2B" transform="translate(90.17431640625,206.978271484375)"/>
<path d="M0 0 C2.171875 1.171875 2.171875 1.171875 4 3 C4.390625 5.69921875 4.390625 5.69921875 4.25 8.6875 C4.21390625 9.68136719 4.1778125 10.67523438 4.140625 11.69921875 C4.07101563 12.83810547 4.07101563 12.83810547 4 14 C3.67 14 3.34 14 3 14 C2.67 11.36 2.34 8.72 2 6 C-1.08012308 4.58991712 -1.08012308 4.58991712 -4.1875 6.5 C-6.82433456 8.77874591 -7.00347272 10.03206132 -7.38671875 13.5703125 C-7.44120165 17.38877204 -7.23653309 21.18918908 -7 25 C-7 25.99 -7 26.98 -7 28 C-9 30 -9 30 -11.5 30.25 C-14 30 -14 30 -16 28 C-16 27.01 -16 26.02 -16 25 C-14.02 24.67 -12.04 24.34 -10 24 C-10.02094727 23.41508789 -10.04189453 22.83017578 -10.06347656 22.22753906 C-10.14680115 19.56853535 -10.19870897 16.90980645 -10.25 14.25 C-10.30027344 12.86941406 -10.30027344 12.86941406 -10.3515625 11.4609375 C-10.45036179 4.64378641 -10.45036179 4.64378641 -8.171875 1.38671875 C-5.22095581 -0.49741131 -3.43995452 -0.50166003 0 0 Z " fill="#823619" transform="translate(146,76)"/>
<path d="M0 0 C0.33 0 0.66 0 1 0 C2.37406985 33.28302523 2.37406985 33.28302523 -5.31640625 42.59375 C-8.44685193 45.40542967 -12.12366327 47.41422588 -16 49 C-16.66 48.67 -17.32 48.34 -18 48 C-17.278125 47.62875 -16.55625 47.2575 -15.8125 46.875 C-12.35739004 44.57159336 -10.44706547 42.3559755 -8 39 C-8 38.01 -8 37.02 -8 36 C-7.41153821 33.98894612 -6.78043728 31.9902329 -6.125 30 C-3.32984991 21.09107638 -1.89178267 12.42037885 -1.24609375 3.1171875 C-1 1 -1 1 0 0 Z " fill="#949394" transform="translate(206,115)"/>
<path d="M0 0 C2.31 0.33 4.62 0.66 7 1 C6.5390625 2.86328125 6.5390625 2.86328125 5 5 C2.2095533 6.11538818 -0.67969885 6.6290709 -3.625 7.1875 C-4.40746094 7.35185547 -5.18992188 7.51621094 -5.99609375 7.68554688 C-15.53441696 9.63908405 -24.72945952 10.18642992 -34.45141602 10.18530273 C-36.53358015 10.1874699 -38.61519613 10.20562094 -40.69726562 10.22460938 C-49.96323002 10.26202353 -58.84485357 9.45930041 -68 8 C-67.67 7.34 -67.34 6.68 -67 6 C-54.48527115 6.90910704 -54.48527115 6.90910704 -49.6875 7.5625 C-35.22120118 9.19919804 -19.92876122 8.20490905 -6 4 C-4.5231515 3.61597198 -3.04441696 3.2389796 -1.5625 2.875 C0.2009375 2.441875 0.2009375 2.441875 2 2 C1.01 1.01 1.01 1.01 0 0 Z " fill="#908E8D" transform="translate(151,226)"/>
<path d="M0 0 C0.33 1.32 0.66 2.64 1 4 C-7.27768389 10.00537851 -16.06197343 11.38842812 -26 13 C-26 11.02 -26 9.04 -26 7 C-22.31764639 5.54643937 -19.04245118 4.87286342 -15.125 4.625 C-10.64652292 4.26645123 -7.46705605 3.07016957 -3.59375 0.83984375 C-2 0 -2 0 0 0 Z " fill="#CCCBC9" transform="translate(95,45)"/>
<path d="M0 0 C0.66 0 1.32 0 2 0 C2.99290126 2.97870377 3.05524548 4.59182885 2.87890625 7.66796875 C2.83056641 8.56064453 2.78222656 9.45332031 2.73242188 10.37304688 C2.67634766 11.30181641 2.62027344 12.23058594 2.5625 13.1875 C2.51029297 14.12787109 2.45808594 15.06824219 2.40429688 16.03710938 C2.27468082 18.35841501 2.13971819 20.67928409 2 23 C0.02 23.33 -1.96 23.66 -4 24 C-6.59222247 18.71131019 -7.49994364 14.41961722 -7.6875 8.5625 C-7.72166016 7.83095703 -7.75582031 7.09941406 -7.79101562 6.34570312 C-7.87251753 4.56430438 -7.93795523 2.78218251 -8 1 C-7.01 1.33 -6.02 1.66 -5 2 C-4.67 5.63 -4.34 9.26 -4 13 C-0.72220127 9.72220127 -0.59505966 9.1639187 -0.3125 4.8125 C-0.24675781 3.91144531 -0.18101562 3.01039062 -0.11328125 2.08203125 C-0.07589844 1.39496094 -0.03851563 0.70789063 0 0 Z " fill="#CEAE9D" transform="translate(134,77)"/>
<path d="M0 0 C0.928125 0.825 1.85625 1.65 2.8125 2.5 C9.45431181 8.19683858 16.66285392 13.24077011 24 18 C23.67 18.66 23.34 19.32 23 20 C18.71 20 14.42 20 10 20 C10 22.97 10 25.94 10 29 C9.67 29 9.34 29 9 29 C8.67 26.36 8.34 23.72 8 21 C7.01 20.67 6.02 20.34 5 20 C5 19.67 5 19.34 5 19 C6.65 19 8.3 19 10 19 C10 16.36 10 13.72 10 11 C9.40703125 10.7421875 8.8140625 10.484375 8.203125 10.21875 C5.82339035 8.90230105 4.49021208 7.57419218 2.75 5.5 C2.22921875 4.8915625 1.7084375 4.283125 1.171875 3.65625 C0 2 0 2 0 0 Z " fill="#D8CCC7" transform="translate(98,52)"/>
<path d="M0 0 C6.93 0 13.86 0 21 0 C21 12.21 21 24.42 21 37 C20.67 37 20.34 37 20 37 C19.02314635 32.9269597 18.88454556 29.131793 18.90234375 24.94921875 C18.9037587 24.29041214 18.90517365 23.63160553 18.90663147 22.95283508 C18.912195 20.86434238 18.92474053 18.77595989 18.9375 16.6875 C18.94251972 15.26497551 18.9470818 13.84244934 18.95117188 12.41992188 C18.96215243 8.94657923 18.97939165 5.47330039 19 2 C16.36 2.33 13.72 2.66 11 3 C10.67 6.96 10.34 10.92 10 15 C9.67 15 9.34 15 9 15 C8.04738513 10.23692563 7.91666643 5.8333472 8 1 C5.36 1 2.72 1 0 1 C0 0.67 0 0.34 0 0 Z " fill="#B76C31" transform="translate(48,72)"/>
<path d="M0 0 C0 1.98 0 3.96 0 6 C-2.3736397 6.50734284 -4.74857425 7.00602386 -7.125 7.5 C-7.79015625 7.64308594 -8.4553125 7.78617188 -9.140625 7.93359375 C-13.16056422 8.7612283 -16.89904899 9.15330658 -21 9 C-21.33 7.35 -21.66 5.7 -22 4 C-21.14277344 3.87882812 -20.28554688 3.75765625 -19.40234375 3.6328125 C-13.22598122 2.7275959 -6.13435613 0 0 0 Z " fill="#A09A96" transform="translate(69,53)"/>
<path d="M0 0 C0.33 7.59 0.66 15.18 1 23 C-0.32 22.67 -1.64 22.34 -3 22 C-2.34 19.03 -1.68 16.06 -1 13 C-2.32 13.33 -3.64 13.66 -5 14 C-4.690625 13.46375 -4.38125 12.9275 -4.0625 12.375 C-2.82172561 9.6015043 -2.4090325 6.99957163 -2 4 C-3.175625 4.598125 -4.35125 5.19625 -5.5625 5.8125 C-12.58260585 8.9424835 -22.4336731 12.22356941 -30 10 C-29.29915283 9.76812988 -28.59830566 9.53625977 -27.8762207 9.29736328 C-24.6877847 8.24149891 -21.50013714 7.18327356 -18.3125 6.125 C-17.20970703 5.76019531 -16.10691406 5.39539063 -14.97070312 5.01953125 C-13.3706543 4.48779297 -13.3706543 4.48779297 -11.73828125 3.9453125 C-10.75899658 3.62062988 -9.77971191 3.29594727 -8.77075195 2.96142578 C-6.89895474 2.31192914 -5.04272026 1.61601824 -3.20385742 0.87841797 C-1 0 -1 0 0 0 Z " fill="#857669" transform="translate(181,198)"/>
<path d="M0 0 C5.75126455 1.97980942 10.01104909 5.49634575 14 10 C10.39543833 10 9.3951002 9.11319598 6.5 7.0625 C2.24267809 4.06108805 -0.76727632 2.85143396 -6 2.8125 C-6.86625 2.79832031 -7.7325 2.78414062 -8.625 2.76953125 C-11.26721537 2.83744062 -11.26721537 2.83744062 -14 5 C-14.50531866 6.92441415 -14.50531866 6.92441415 -14.51171875 9.1328125 C-14.56489258 10.34130859 -14.56489258 10.34130859 -14.61914062 11.57421875 C-14.64169922 12.41597656 -14.66425781 13.25773437 -14.6875 14.125 C-14.72166016 14.97449219 -14.75582031 15.82398438 -14.79101562 16.69921875 C-14.87359173 18.79901105 -14.93846978 20.89948564 -15 23 C-14.34 23.33 -13.68 23.66 -13 24 C-13.99 24 -14.98 24 -16 24 C-17.82915214 20.34169572 -17.22762535 16.02743635 -17.25 12 C-17.270625 11.071875 -17.29125 10.14375 -17.3125 9.1875 C-17.31765625 8.300625 -17.3228125 7.41375 -17.328125 6.5 C-17.3374707 5.6853125 -17.34681641 4.870625 -17.35644531 4.03125 C-17.18000488 3.02578125 -17.18000488 3.02578125 -17 2 C-11.88139785 -1.41240144 -5.96535466 -0.6361314 0 0 Z " fill="#AFAEAF" transform="translate(212,48)"/>
<path d="M0 0 C0.33 0 0.66 0 1 0 C1.33 3.96 1.66 7.92 2 12 C2.33 12 2.66 12 3 12 C3.10901505 14.83439137 3.18777904 17.66450203 3.25 20.5 C3.30027344 21.68722656 3.30027344 21.68722656 3.3515625 22.8984375 C3.44483555 28.58809353 2.57835292 33.41236805 -1 38 C-3.13964844 39.22070312 -3.13964844 39.22070312 -5 40 C-5.66 39.34 -6.32 38.68 -7 38 C-6.73308748 34.1297684 -4.37854556 31.8988524 -2 29 C-0.94163339 25.82490018 -0.79756211 23.35717617 -0.68359375 20.01953125 C-0.64169922 18.85615234 -0.59980469 17.69277344 -0.55664062 16.49414062 C-0.51732422 15.27919922 -0.47800781 14.06425781 -0.4375 12.8125 C-0.39431641 11.58595703 -0.35113281 10.35941406 -0.30664062 9.09570312 C-0.2004691 6.06391619 -0.09842048 3.03204685 0 0 Z " fill="#8F4821" transform="translate(160,75)"/>
<path d="M0 0 C0.66 0 1.32 0 2 0 C2.33 9.24 2.66 18.48 3 28 C4.98 28.33 6.96 28.66 9 29 C11.375 31.5625 11.375 31.5625 13 34 C12.67 34.66 12.34 35.32 12 36 C11.401875 35.38125 10.80375 34.7625 10.1875 34.125 C5.72898181 31.15265454 1.24283948 30.69782102 -4 30 C-2.125 26.125 -2.125 26.125 -1 25 C-0.84213692 23.14825294 -0.74892644 21.2909089 -0.68359375 19.43359375 C-0.62075195 17.7465332 -0.62075195 17.7465332 -0.55664062 16.02539062 C-0.51732422 14.84138672 -0.47800781 13.65738281 -0.4375 12.4375 C-0.39431641 11.24962891 -0.35113281 10.06175781 -0.30664062 8.83789062 C-0.20016454 5.89205216 -0.09815159 2.9461257 0 0 Z " fill="#706F6F" transform="translate(192,45)"/>
<path d="M0 0 C0.55945312 0.31453125 1.11890625 0.6290625 1.6953125 0.953125 C7.91751968 4.27430311 14.07932717 6.32887127 20.8984375 8.10546875 C23.49663311 8.8548224 25.65167405 9.68701973 28 11 C20.35383636 10.76030835 13.96457457 10.08592463 7.0234375 6.7421875 C4.8459657 5.70491361 4.8459657 5.70491361 2 7 C1.26676204 9.01508358 1.26676204 9.01508358 1 11 C3.97 11.495 3.97 11.495 7 12 C7 12.66 7 13.32 7 14 C0.125 13.125 0.125 13.125 -1 12 C-1.09854655 10.35659133 -1.12972411 8.7088539 -1.125 7.0625 C-1.12757812 6.16660156 -1.13015625 5.27070313 -1.1328125 4.34765625 C-1 2 -1 2 0 0 Z " fill="#746E68" transform="translate(45,198)"/>
<path d="M0 0 C0.33 0 0.66 0 1 0 C1.18898368 6.50364537 0.59376953 12.28400285 -0.8125 18.625 C-0.97814453 19.43195313 -1.14378906 20.23890625 -1.31445312 21.0703125 C-2.37745914 26.01228765 -3.65781035 30.50441181 -6 35 C-7.485 35.495 -7.485 35.495 -9 36 C-9.495 34.515 -9.495 34.515 -10 33 C-9.05988318 31.29883624 -8.05104383 29.63495707 -7 28 C-5.06480329 23.84567812 -4.26314969 19.61164928 -3.5 15.125 C-2.61275147 9.96725857 -1.51802636 5.01210426 0 0 Z " fill="#858281" transform="translate(233,133)"/>
<path d="M0 0 C3.55799314 5.74752739 3.4650963 11.64282494 3.69140625 18.28125 C4.01404836 22.16929167 4.81362867 25.30271426 6 29 C5.34 29 4.68 29 4 29 C1.56875259 23.89438044 1.30631732 18.78440241 0.7890625 13.23828125 C0.37056614 9.16154944 -0.21343289 5.75179093 -2 2 C-5.3 2 -8.6 2 -12 2 C-12.98643638 7.12283766 -13.30967053 12.17748929 -13.5625 17.375 C-13.60568359 18.20644531 -13.64886719 19.03789063 -13.69335938 19.89453125 C-13.79861805 21.92953228 -13.89973072 23.96474703 -14 26 C-14.33 26 -14.66 26 -15 26 C-15 17.42 -15 8.84 -15 0 C-3 -1 -3 -1 0 0 Z " fill="#9D4C1E" transform="translate(124,72)"/>
<path d="M0 0 C0.66 0.33 1.32 0.66 2 1 C-5.27725671 8.73208526 -11.58414085 14.44917735 -22 17 C-22.33 17.33 -22.66 17.66 -23 18 C-25.33297433 18.04092937 -27.66705225 18.04241723 -30 18 C-27 16 -27 16 -23.625 14.5625 C-17.89580101 12.35708394 -17.89580101 12.35708394 -14 8 C-12.109375 7.0703125 -12.109375 7.0703125 -9.75 6.125 C-5.99454879 4.53177827 -3.05282554 2.75739081 0 0 Z " fill="#797474" transform="translate(219,170)"/>
<path d="M0 0 C5.48235476 -0.10632446 9.7671264 0.5311232 15 2 C15 2.66 15 3.32 15 4 C13.86111328 3.98259766 13.86111328 3.98259766 12.69921875 3.96484375 C11.70535156 3.95582031 10.71148437 3.94679687 9.6875 3.9375 C8.70136719 3.92589844 7.71523437 3.91429687 6.69921875 3.90234375 C3.90036151 3.87670138 3.90036151 3.87670138 1 5 C1.33 12.26 1.66 19.52 2 27 C2.99 27 3.98 27 5 27 C5 27.66 5 28.32 5 29 C3.0625 28.625 3.0625 28.625 1 28 C-0.35700647 25.28598706 -0.1123861 23.15153684 -0.09765625 20.1171875 C-0.09443359 18.95058594 -0.09121094 17.78398438 -0.08789062 16.58203125 C-0.07951172 15.35871094 -0.07113281 14.13539062 -0.0625 12.875 C-0.05798828 11.64394531 -0.05347656 10.41289063 -0.04882812 9.14453125 C-0.0370133 6.09630608 -0.02054028 3.04817686 0 0 Z " fill="#909090" transform="translate(194,45)"/>
<path d="M0 0 C0.81842377 0.02361099 1.63684753 0.04722198 2.48007202 0.07154846 C5.0988681 0.14823569 7.71737221 0.23223808 10.3359375 0.31640625 C12.10936062 0.36962188 13.88279808 0.42236232 15.65625 0.47460938 C20.00799804 0.60385765 24.35949811 0.73966777 28.7109375 0.87890625 C28.7109375 1.20890625 28.7109375 1.53890625 28.7109375 1.87890625 C18.8109375 2.37390625 18.8109375 2.37390625 8.7109375 2.87890625 C8.7109375 3.20890625 8.7109375 3.53890625 8.7109375 3.87890625 C6.29359208 3.96008576 3.87898801 4.01947551 1.4609375 4.06640625 C0.77902344 4.09154297 0.09710938 4.11667969 -0.60546875 4.14257812 C-3.88105539 4.19028084 -5.94254806 4.08975701 -8.7734375 2.3671875 C-9.27359375 1.87605469 -9.77375 1.38492188 -10.2890625 0.87890625 C-7.05442167 -0.73841416 -3.54197799 -0.11984572 0 0 Z " fill="#DD972D" transform="translate(94.2890625,207.12109375)"/>
<path d="M0 0 C1.134375 0.020625 2.26875 0.04125 3.4375 0.0625 C3.4375 0.7225 3.4375 1.3825 3.4375 2.0625 C1.7875 2.7225 0.1375 3.3825 -1.5625 4.0625 C-1.5625 10.0025 -1.5625 15.9425 -1.5625 22.0625 C-4.14218824 16.90312351 -4.69924163 13.65567538 -4.6875 7.9375 C-4.69136719 6.04644531 -4.69136719 6.04644531 -4.6953125 4.1171875 C-4.50500176 -0.25995943 -4.48017051 0.07859948 0 0 Z " fill="#5B5756" transform="translate(180.5625,161.9375)"/>
<path d="M0 0 C0.66 0.33 1.32 0.66 2 1 C-15.21690584 19.59059514 -15.21690584 19.59059514 -24.84765625 20.171875 C-25.55792969 20.11515625 -26.26820313 20.0584375 -27 20 C-26.34 19.67 -25.68 19.34 -25 19 C-24.67 18.01 -24.34 17.02 -24 16 C-22.25 15.296875 -22.25 15.296875 -20 14.75 C-11.76503162 12.24939752 -5.81137502 6.10939426 0 0 Z " fill="#646160" transform="translate(221,170)"/>
<path d="M0 0 C-0.99 0.495 -0.99 0.495 -2 1 C-2 1.66 -2 2.32 -2 3 C1.63 3.33 5.26 3.66 9 4 C8.01 4.495 8.01 4.495 7 5 C7 5.66 7 6.32 7 7 C-3.55808656 7.3690205 -3.55808656 7.3690205 -8 5 C-7.01 4.67 -6.02 4.34 -5 4 C-5 3.34 -5 2.68 -5 2 C-5.66 1.67 -6.32 1.34 -7 1 C-4.53721199 -0.231394 -2.7204945 -0.07159196 0 0 Z " fill="#D6912F" transform="translate(76,202)"/>
<path d="M0 0 C-1.39909198 4.45165631 -3.47407079 6.96606091 -7 10 C-9.8125 11.3125 -9.8125 11.3125 -12 12 C-11.04270084 10.87411986 -10.08412105 9.7493285 -9.125 8.625 C-8.59132812 7.99851563 -8.05765625 7.37203125 -7.5078125 6.7265625 C-6.38567993 5.44163349 -5.20628025 4.20628025 -4 3 C-7.15330554 3.60694155 -9.18888867 4.6416665 -11.75 6.5625 C-12.36359375 7.01753906 -12.9771875 7.47257813 -13.609375 7.94140625 C-14.06828125 8.29074219 -14.5271875 8.64007813 -15 9 C-15.66 8.67 -16.32 8.34 -17 8 C-12.64453844 3.10010575 -6.89824704 -2.36599119 0 0 Z " fill="#9C9896" transform="translate(226,168)"/>
<path d="M0 0 C2.31 0.33 4.62 0.66 7 1 C6.35546875 2.890625 6.35546875 2.890625 5 5 C-1.01935235 7.44793085 -7.53304089 8.44092903 -14 8 C-12 5 -12 5 -8.7421875 4.05078125 C-7.46601563 3.80714844 -6.18984375 3.56351563 -4.875 3.3125 C-3.59367188 3.06113281 -2.31234375 2.80976563 -0.9921875 2.55078125 C-0.00476563 2.36902344 0.98265625 2.18726563 2 2 C1.34 1.34 0.68 0.68 0 0 Z " fill="#9D9A98" transform="translate(151,226)"/>
<path d="M0 0 C0.33 0 0.66 0 1 0 C1 4.95 1 9.9 1 15 C-0.98 15.33 -2.96 15.66 -5 16 C-5.66 14.35 -6.32 12.7 -7 11 C-5.5459375 9.948125 -5.5459375 9.948125 -4.0625 8.875 C-1.44842775 6.72838538 -1.03741594 6.14164606 -0.125 2.6875 C-0.08375 1.800625 -0.0425 0.91375 0 0 Z " fill="#C39077" transform="translate(135,85)"/>
<path d="M0 0 C0.66 0 1.32 0 2 0 C3.27252229 8.27139492 3.89178514 16.78725024 2 25 C0.16930097 21.87070822 -0.23931181 19.62356854 -0.1953125 16.015625 C-0.18886719 15.08105469 -0.18242187 14.14648438 -0.17578125 13.18359375 C-0.15902344 12.21550781 -0.14226562 11.24742188 -0.125 10.25 C-0.11597656 9.26644531 -0.10695312 8.28289062 -0.09765625 7.26953125 C-0.07412785 4.84610593 -0.04125368 2.42317778 0 0 Z " fill="#C6947B" transform="translate(150,79)"/>
<path d="M0 0 C-0.66 0.66 -1.32 1.32 -2 2 C-2.99 2 -3.98 2 -5 2 C-5 2.66 -5 3.32 -5 4 C-11.11980533 5.40454548 -16.71739294 6.23268915 -23 6 C-23 5.67 -23 5.34 -23 5 C-17.555 4.01 -17.555 4.01 -12 3 C-12.33 2.34 -12.66 1.68 -13 1 C-4.738041 -2.81321185 -4.738041 -2.81321185 0 0 Z " fill="#B07D43" transform="translate(156,206)"/>
<path d="M0 0 C3.77693404 0.94423351 4.9550033 1.93919364 7.3125 5.125 C9.4315619 9.20077631 9.38416493 12.46685387 9 17 C8 19 8 19 6 22 C5.94392578 20.42798828 5.94392578 20.42798828 5.88671875 18.82421875 C5.82105485 17.44527695 5.75460765 16.06637229 5.6875 14.6875 C5.66494141 13.99720703 5.64238281 13.30691406 5.61914062 12.59570312 C5.44765943 8.54757542 5.44765943 8.54757542 3.45703125 5.14453125 C2.97621094 4.76683594 2.49539062 4.38914062 2 4 C2 3.34 2 2.68 2 2 C1.34 2 0.68 2 0 2 C0 1.34 0 0.68 0 0 Z " fill="#A9A9A9" transform="translate(199,72)"/>
<path d="M0 0 C0.33 0.99 0.66 1.98 1 3 C1.66 3 2.32 3 3 3 C3 3.66 3 4.32 3 5 C6.63 5 10.26 5 14 5 C14 5.66 14 6.32 14 7 C12.04310963 7.36205464 10.08442332 7.71441421 8.125 8.0625 C6.48917969 8.35833984 6.48917969 8.35833984 4.8203125 8.66015625 C2 9 2 9 0 8 C0 5.36 0 2.72 0 0 Z " fill="#686664" transform="translate(179,185)"/>
<path d="M0 0 C4 2 4 2 5 3 C5.35897436 9.46153846 5.35897436 9.46153846 3 13 C2.67 12.01 2.34 11.02 2 10 C1.34 11.32 0.68 12.64 0 14 C0 9.38 0 4.76 0 0 Z " fill="#7D3014" transform="translate(173,80)"/>
<path d="M0 0 C0.33 0 0.66 0 1 0 C1.54372951 3.05847848 2 5.88772805 2 9 C0 11 0 11 -2.5 11.25 C-5 11 -5 11 -7 9 C-7 8.01 -7 7.02 -7 6 C-3.535 5.505 -3.535 5.505 0 5 C0 3.35 0 1.7 0 0 Z " fill="#904C22" transform="translate(137,95)"/>
<path d="M0 0 C0.66 0.33 1.32 0.66 2 1 C1.50628906 1.42667969 1.01257812 1.85335938 0.50390625 2.29296875 C-3.96242381 6.65145986 -5.46562833 9.63831051 -5.8125 15.9375 C-5.81894531 17.06027344 -5.82539062 18.18304688 -5.83203125 19.33984375 C-5.88746094 20.21769531 -5.94289062 21.09554687 -6 22 C-6.66 22.33 -7.32 22.66 -8 23 C-9.22690583 8.80538117 -9.22690583 8.80538117 -6.21875 4.37890625 C-4.22009163 2.68638041 -2.28916652 1.26721718 0 0 Z " fill="#D9CEC6" transform="translate(50,27)"/>
<path d="M0 0 C4.77609498 1.64178265 8.79382904 4.26546702 13 7 C12.67 7.66 12.34 8.32 12 9 C8.04 9 4.08 9 0 9 C0 8.67 0 8.34 0 8 C3.465 7.505 3.465 7.505 7 7 C6.4946875 6.66226563 5.989375 6.32453125 5.46875 5.9765625 C4.49421875 5.30753906 4.49421875 5.30753906 3.5 4.625 C2.8503125 4.18414062 2.200625 3.74328125 1.53125 3.2890625 C1.0259375 2.86367187 0.520625 2.43828125 0 2 C0 1.34 0 0.68 0 0 Z " fill="#AE9C94" transform="translate(109,63)"/>
<path d="M0 0 C0.33 0 0.66 0 1 0 C1.22731216 6.93302093 0.42002108 13.2168636 -1 20 C-1.99 19.67 -2.98 19.34 -4 19 C-3.7834375 17.71029297 -3.7834375 17.71029297 -3.5625 16.39453125 C-3.19981397 14.20582178 -2.84504268 12.01577889 -2.5 9.82421875 C-2.335 8.78910156 -2.17 7.75398437 -2 6.6875 C-1.835 5.63949219 -1.67 4.59148437 -1.5 3.51171875 C-1 1 -1 1 0 0 Z " fill="#858585" transform="translate(233,133)"/>
<path d="M0 0 C0.66 0.33 1.32 0.66 2 1 C1.01 2.485 1.01 2.485 0 4 C-0.99 4 -1.98 4 -3 4 C-3 4.66 -3 5.32 -3 6 C-3.56589844 6.27714844 -4.13179687 6.55429688 -4.71484375 6.83984375 C-5.44832031 7.20207031 -6.18179688 7.56429687 -6.9375 7.9375 C-7.66839844 8.29714844 -8.39929688 8.65679687 -9.15234375 9.02734375 C-10.96249027 9.86371827 -10.96249027 9.86371827 -12 11 C-14.33297433 11.04092937 -16.66705225 11.04241723 -19 11 C-16 9 -16 9 -12.625 7.5625 C-6.89580101 5.35708394 -6.89580101 5.35708394 -3 1 C-2.01 0.67 -1.02 0.34 0 0 Z " fill="#8A8685" transform="translate(208,177)"/>
<path d="M0 0 C3.96193606 0.58326527 6.77394436 1.79897978 10.1875 3.875 C11.04730469 4.38804688 11.90710938 4.90109375 12.79296875 5.4296875 C15 7 15 7 17 10 C13.42042166 10 12.53689395 9.18207543 9.6875 7.125 C6.21585522 4.71980819 3.13430012 3.06007695 -1 2 C-0.67 1.34 -0.34 0.68 0 0 Z " fill="#A1A1A1" transform="translate(209,48)"/>
<path d="M0 0 C0.33 0 0.66 0 1 0 C1.33 7.59 1.66 15.18 2 23 C0.68 22.67 -0.64 22.34 -2 22 C-1.34 19.03 -0.68 16.06 0 13 C-1.32 13.33 -2.64 13.66 -4 14 C-3.50757813 13.61070312 -3.01515625 13.22140625 -2.5078125 12.8203125 C-0.49559301 10.3910527 -0.72107724 8.98061805 -0.875 5.875 C-0.94560869 4.25100015 -0.99417375 2.62552366 -1 1 C-0.67 0.67 -0.34 0.34 0 0 Z " fill="#4C423A" transform="translate(180,198)"/>
<path d="M0 0 C0.66 0.33 1.32 0.66 2 1 C-9.26666667 11 -9.26666667 11 -13 11 C-13 10.34 -13 9.68 -13 9 C-13.99 8.67 -14.98 8.34 -16 8 C-15.34773437 7.75765625 -14.69546875 7.5153125 -14.0234375 7.265625 C-8.88786806 5.29623259 -4.43057105 3.2646313 0 0 Z " fill="#6C6C6C" transform="translate(197,153)"/>
<path d="M0 0 C0.33 0 0.66 0 1 0 C1.08165496 2.20770805 1.13948488 4.41630425 1.1875 6.625 C1.22230469 7.85476562 1.25710937 9.08453125 1.29296875 10.3515625 C0.90176278 15.22338091 -0.54279619 18.54279619 -4 22 C-6.125 21.625 -6.125 21.625 -8 21 C-8 20.34 -8 19.68 -8 19 C-7.195625 18.87625 -6.39125 18.7525 -5.5625 18.625 C-4.716875 18.41875 -3.87125 18.2125 -3 18 C-1.4173007 14.8346014 -1.34303451 11.35358491 -0.9375 7.875 C-0.84662109 7.12089844 -0.75574219 6.36679688 -0.66210938 5.58984375 C-0.43809148 3.72695812 -0.21861427 1.86352748 0 0 Z " fill="#CD9C84" transform="translate(159,87)"/>
<path d="M0 0 C0.33 0 0.66 0 1 0 C1.24199091 3.93159138 1.45693037 7.86364159 1.64697266 11.7980957 C1.74904942 13.79391409 1.87247369 15.78860322 1.99609375 17.78320312 C2.05410156 19.03681641 2.11210937 20.29042969 2.171875 21.58203125 C2.2347168 22.73936768 2.29755859 23.8967041 2.36230469 25.08911133 C2 28 2 28 -0.01074219 29.90112305 C-0.66719727 30.26375244 -1.32365234 30.62638184 -2 31 C-1.84152588 30.30237549 -1.68305176 29.60475098 -1.51977539 28.88598633 C-0.96990445 25.83289832 -0.79048117 22.92395403 -0.68359375 19.82421875 C-0.64169922 18.66728516 -0.59980469 17.51035156 -0.55664062 16.31835938 C-0.51732422 15.12017578 -0.47800781 13.92199219 -0.4375 12.6875 C-0.39431641 11.46998047 -0.35113281 10.25246094 -0.30664062 8.99804688 C-0.20078504 5.9988053 -0.09870274 2.99948409 0 0 Z " fill="#9E6342" transform="translate(160,75)"/>
<path d="M0 0 C0.66 0.33 1.32 0.66 2 1 C1.22914063 1.49628906 0.45828125 1.99257812 -0.3359375 2.50390625 C-6.95087872 6.56811987 -6.95087872 6.56811987 -10.6875 13 C-10.790625 13.99 -10.89375 14.98 -11 16 C-11.33 16 -11.66 16 -12 16 C-12.05399736 14.54207116 -12.09279177 13.08357288 -12.125 11.625 C-12.15980469 10.40683594 -12.15980469 10.40683594 -12.1953125 9.1640625 C-12 7 -12 7 -10 5 C-8.3364521 4.32558869 -6.66933058 3.6599679 -5 3 C-4.113125 2.443125 -3.22625 1.88625 -2.3125 1.3125 C-1.1678125 0.6628125 -1.1678125 0.6628125 0 0 Z " fill="#7C7A7B" transform="translate(192,159)"/>
<path d="M0 0 C4.20958565 1.40319522 4.96649932 3.77582209 6.9921875 7.56640625 C8.40010318 10.96614064 8.38605959 13.37103985 8 17 C7.72285156 16.44441406 7.44570312 15.88882813 7.16015625 15.31640625 C6.35959483 13.7179789 5.55463202 12.12175099 4.74609375 10.52734375 C4.31425781 9.67269531 3.88242188 8.81804687 3.4375 7.9375 C3.00308594 7.08027344 2.56867188 6.22304687 2.12109375 5.33984375 C1 3 1 3 0 0 Z " fill="#8C8C8C" transform="translate(225,58)"/>
<path d="M0 0 C3.1875 -0.3125 3.1875 -0.3125 7 0 C9.8125 2.375 9.8125 2.375 12 5 C12.66 5.66 13.32 6.32 14 7 C13.67 7.99 13.34 8.98 13 10 C11.62437146 8.71034824 10.29233607 7.37310707 9 6 C9 5.34 9 4.68 9 4 C6.03 3.01 3.06 2.02 0 1 C0 0.67 0 0.34 0 0 Z " fill="#DCDCDC" transform="translate(210,53)"/>
<path d="M0 0 C2.97 0.495 2.97 0.495 6 1 C1.55595403 4.62107449 -2.21434368 6.33060893 -8 6 C-5.61426621 4.10786631 -3.92824652 2.97608217 -1 2 C-0.67 1.34 -0.34 0.68 0 0 Z " fill="#6B615C" transform="translate(174,220)"/>
<path d="M0 0 C0 3 0 3 -2.1875 5.5625 C-4.81277706 7.83774012 -6.72443519 8.97053677 -10 10 C-3.84965831 2.51708428 -3.84965831 2.51708428 0 0 Z " fill="#CAC6C6" transform="translate(224,170)"/>
<path d="M0 0 C2.01822917 0.06510417 4.03645833 0.13020833 6.0546875 0.1953125 C5.7246875 1.1853125 5.3946875 2.1753125 5.0546875 3.1953125 C2.13985972 4.00498688 0.59355533 4.41377243 -2.2578125 3.2578125 C-2.8146875 2.9071875 -3.3715625 2.5565625 -3.9453125 2.1953125 C-1.9453125 0.1953125 -1.9453125 0.1953125 0 0 Z " fill="#C97828" transform="translate(155.9453125,202.8046875)"/>
<path d="M0 0 C2 3 2 3 2 7 C4.97 7.495 4.97 7.495 8 8 C8 8.66 8 9.32 8 10 C1.125 9.125 1.125 9.125 0 8 C-0.14115161 5.32941149 -0.04247107 2.67567762 0 0 Z " fill="#8A847F" transform="translate(44,202)"/>
<path d="M0 0 C0.66 0.33 1.32 0.66 2 1 C1.52269162 2.4589426 1.04308958 3.91713496 0.5625 5.375 C0.29566406 6.18710938 0.02882812 6.99921875 -0.24609375 7.8359375 C-1 10 -1 10 -2 12 C-2.66 12 -3.32 12 -4 12 C-3.45660208 7.43545749 -2.20536179 4.0271824 0 0 Z " fill="#D8CCC3" transform="translate(186,72)"/>
<path d="M0 0 C2.875 0.0625 2.875 0.0625 6 1 C8.375 3.5625 8.375 3.5625 10 6 C9.67 6.66 9.34 7.32 9 8 C7.948125 7.071875 7.948125 7.071875 6.875 6.125 C3.94222819 3.9572991 1.48817594 2.97344445 -2 2 C-1.34 1.34 -0.68 0.68 0 0 Z " fill="#777877" transform="translate(195,73)"/>
<path d="M0 0 C3 1 3 1 4 3 C0.86501708 4.85776765 -1.37471432 5.20140476 -5 5 C-4.34 4.67 -3.68 4.34 -3 4 C-2.67 3.01 -2.34 2.02 -2 1 C-1.34 0.67 -0.68 0.34 0 0 Z " fill="#6C6A69" transform="translate(199,185)"/>
<path d="M0 0 C3.14624993 -0.26218749 4.61837017 -0.24754367 7.3125 1.5 C8.1478125 2.2425 8.1478125 2.2425 9 3 C6.29120665 4.35439668 3.99066732 4.06501451 1 4 C0.67 2.68 0.34 1.36 0 0 Z " fill="#948E8C" transform="translate(47,58)"/>
<path d="M0 0 C0.33 0.66 0.66 1.32 1 2 C-0.98 4.31 -2.96 6.62 -5 9 C-5.66 8.34 -6.32 7.68 -7 7 C-2.25 1.125 -2.25 1.125 0 0 Z " fill="#A8A7A8" transform="translate(202,152)"/>
<path d="M0 0 C0.66 0 1.32 0 2 0 C2.125 6.625 2.125 6.625 1 10 C0.34 10 -0.32 10 -1 10 C-0.67 6.7 -0.34 3.4 0 0 Z " fill="#828282" transform="translate(202,138)"/>
<path d="M0 0 C-0.99 0.495 -0.99 0.495 -2 1 C-2 1.66 -2 2.32 -2 3 C-1.34 3.33 -0.68 3.66 0 4 C-6.15234375 3.4140625 -6.15234375 3.4140625 -8 3 C-8.33 2.34 -8.66 1.68 -9 1 C-5.8035914 -0.06546953 -3.34252724 -0.07427838 0 0 Z " fill="#AFABA8" transform="translate(77,226)"/>
<path d="M0 0 C2 3 2 3 3 6 C3.66 6.66 4.32 7.32 5 8 C4.34 8 3.68 8 3 8 C3 10.31 3 12.62 3 15 C2.67 15 2.34 15 2 15 C0.73694665 9.92523206 -0.27036084 5.27203646 0 0 Z " fill="#D3C8BF" transform="translate(44,49)"/>
<path d="M0 0 C0.66 0.33 1.32 0.66 2 1 C1.09972412 2.03531726 0.17906965 3.05294165 -0.75 4.0625 C-1.51570312 4.91521484 -1.51570312 4.91521484 -2.296875 5.78515625 C-2.85890625 6.18605469 -3.4209375 6.58695313 -4 7 C-5.32 6.67 -6.64 6.34 -8 6 C-5.36 4.02 -2.72 2.04 0 0 Z " fill="#8A8684" transform="translate(219,170)"/>
<path d="M0 0 C0.33 0.66 0.66 1.32 1 2 C1.66 2 2.32 2 3 2 C2.67 3.32 2.34 4.64 2 6 C0.66666667 6 -0.66666667 6 -2 6 C-2 4.35 -2 2.7 -2 1 C-1.34 0.67 -0.68 0.34 0 0 Z " fill="#BA7E40" transform="translate(46,194)"/>
<path d="M0 0 C3.465 1.98 3.465 1.98 7 4 C7 4.33 7 4.66 7 5 C4.69 5 2.38 5 0 5 C0 3.35 0 1.7 0 0 Z " fill="#C1BAB8" transform="translate(109,65)"/>
<path d="M0 0 C1.17539996 0.92652701 2.34010577 1.86663387 3.5 2.8125 C4.1496875 3.33457031 4.799375 3.85664062 5.46875 4.39453125 C7 6 7 6 7 9 C3.99234114 6.15063897 1.72154788 3.76488042 0 0 Z " fill="#D5D3D1" transform="translate(98,52)"/>
<path d="M0 0 C0.66 0 1.32 0 2 0 C1.67 2.64 1.34 5.28 1 8 C0.01 7.67 -0.98 7.34 -2 7 C-1.125 1.125 -1.125 1.125 0 0 Z " fill="#919191" transform="translate(231,145)"/>
<path d="M0 0 C2 3 2 3 2 6 C3.32 6.33 4.64 6.66 6 7 C4.02 7.33 2.04 7.66 0 8 C0 5.36 0 2.72 0 0 Z " fill="#535151" transform="translate(179,185)"/>
<path d="M0 0 C0.66 0.33 1.32 0.66 2 1 C0.68 2.65 -0.64 4.3 -2 6 C-3.32 5.67 -4.64 5.34 -6 5 C-6 4.34 -6 3.68 -6 3 C-5.195625 2.87625 -4.39125 2.7525 -3.5625 2.625 C-2.716875 2.41875 -1.87125 2.2125 -1 2 C-0.67 1.34 -0.34 0.68 0 0 Z " fill="#C78565" transform="translate(157,103)"/>
<path d="M0 0 C0.66 0.33 1.32 0.66 2 1 C2 1.66 2 2.32 2 3 C1.01 3 0.02 3 -1 3 C-0.67 2.01 -0.34 1.02 0 0 Z " fill="#F1F1F1" transform="translate(184,86)"/>
</svg>
